<?xml version="1.0" standalone="no"?>
<!DOCTYPE svg PUBLIC "-//W3C//DTD SVG 20010904//EN"
 "http://www.w3.org/TR/2001/REC-SVG-20010904/DTD/svg10.dtd">
<svg version="1.0" xmlns="http://www.w3.org/2000/svg"
 width="512.000000pt" height="512.000000pt" viewBox="0 0 512.000000 512.000000"
 preserveAspectRatio="xMidYMid meet">
<metadata>
Created by potrace 1.14, written by Peter Selinger 2001-2017
</metadata>
<g transform="translate(0.000000,512.000000) scale(0.100000,-0.100000)"
fill="#000000" stroke="none">
<path d="M2057 4379 c-100 -24 -212 -109 -260 -197 -45 -82 -57 -151 -57 -319
l0 -153 184 0 185 0 3 158 c3 144 5 160 25 188 45 62 56 64 423 64 374 0 381
-1 428 -73 24 -37 26 -48 30 -188 l4 -149 179 0 179 0 0 150 c0 82 -5 173 -11
202 -26 125 -114 233 -237 291 l-67 32 -485 2 c-267 1 -502 -3 -523 -8z"/>
<path d="M1275 2930 c-45 -10 -71 -27 -101 -65 l-26 -35 -510 0 -510 0 6 -37
c4 -21 55 -429 115 -907 107 -849 110 -869 140 -931 40 -81 129 -165 208 -197
l58 -23 1905 0 1905 0 58 23 c79 32 168 116 208 197 30 62 33 82 140 931 60
478 111 886 115 907 l6 37 -510 0 -510 0 -26 35 c-36 47 -78 67 -138 67 -58
-1 -105 -25 -133 -70 l-20 -31 -1095 -1 -1095 0 -17 29 c-30 54 -106 85 -173
71z m-135 -507 c0 -104 5 -205 10 -225 13 -44 65 -93 118 -109 69 -20 153 17
190 84 14 27 17 67 20 235 l4 202 129 0 129 0 0 -830 0 -830 -430 0 -430 0 0
830 0 830 130 0 130 0 0 -187z m2502 -15 c4 -220 9 -244 64 -287 87 -68 209
-38 255 63 16 35 19 68 19 234 l0 192 130 0 130 0 0 -830 0 -830 -430 0 -430
0 0 830 0 830 129 0 129 0 4 -202z"/>
</g>
</svg>
